<svg xmlns="http://www.w3.org/2000/svg" width="185" height="65" viewBox="0 0 185 65" fill="none">
<g id="logo">
<g id="Group 8">
<g id="Group 3">
<mask id="mask0" mask-type="alpha" maskUnits="userSpaceOnUse" x="0" y="0" width="185" height="65">
<path id="Clip 2" fill-rule="evenodd" clip-rule="evenodd" d="M0 0.0861816H184.644V64.4578H0V0.0861816Z" fill="white"/>
</mask>
<g mask="url(#mask0)">
<path id="Fill 1" fill-rule="evenodd" clip-rule="evenodd" d="M128.093 8.00077C129.002 8.00077 129.924 7.94321 130.831 7.87764C132.893 7.72849 134.739 8.35707 136.282 9.72913C137.825 8.35707 139.672 7.72849 141.733 7.87764C142.64 7.94321 143.563 8.00077 144.472 8.00077C145.332 8.00077 146.192 7.96277 147.05 7.88697C149.395 7.67982 151.493 8.49065 153.147 10.2428L153.918 11.0601L154.408 10.7689C157.842 8.73448 161.688 7.90609 165.611 7.90586C166.725 7.90586 167.862 8.00055 168.972 8.10302C169.604 8.1617 170.293 8.23438 170.931 8.23793C172.183 8.19793 173.519 8.04456 174.768 7.93432C176.747 7.75961 178.505 8.2995 180.081 9.56554L181.379 10.6086C183.456 12.2779 184.514 14.7037 184.36 17.439C184.159 20.9946 184.104 24.572 184.104 28.1332C184.104 32.8562 184.228 37.6071 184.613 42.3139C184.851 45.2074 183.705 47.8137 181.451 49.5087L180.064 50.5518C179.983 50.6125 179.902 50.6716 179.821 50.7283C180.861 52.1597 181.481 53.9436 181.481 55.8741C181.481 60.5657 177.823 64.3925 173.339 64.3925H70.735C68.6231 64.3925 66.6945 63.5441 65.2452 62.156C63.874 63.5701 62.0822 64.3505 60.057 64.3887L56.486 64.4565C53.1241 64.5201 50.2301 62.4147 49.1166 59.0952L48.8634 58.3112C45.6063 58.0998 42.2392 58.1005 39.1834 58.1005H27.3814C24.4535 58.1005 21.5064 58.2054 18.5801 58.3074C15.4989 58.4152 12.3983 58.5228 9.31558 58.5228C6.97603 58.5228 4.96277 57.5431 3.45549 55.6713L1.80405 53.6209C0.512 52.0166 -0.0832718 50.1809 0.00935076 48.0853C0.282332 41.9014 0.389836 35.7072 0.389836 29.5172C0.389836 23.1593 0.274114 16.7997 0.0084623 10.4475C-0.0772746 8.40086 0.491121 6.61093 1.73009 5.02438L3.28446 3.03419C4.93367 0.922414 7.26656 -0.111578 9.86355 0.118247C11.0219 0.220713 12.1838 0.270723 13.3461 0.270723C14.4871 0.270723 15.6284 0.222491 16.7651 0.119581C18.9832 -0.0811276 20.9649 0.62413 22.6057 2.19846C24.2331 3.76011 25.0754 5.74564 25.0887 8.05078C26.2369 7.33375 27.5493 6.965 28.9842 6.965H35.0067C36.458 6.965 37.7951 7.34775 38.9504 8.0759C38.9579 5.79543 39.7733 3.83191 41.363 2.26736C42.96 0.6957 44.8931 -0.0355626 47.0814 0.104689C48.2695 0.180705 49.5027 0.270946 50.6925 0.270723C51.852 0.270501 53.0139 0.209822 54.1696 0.114469C56.7128 -0.0953528 58.9893 0.900409 60.6329 2.94128L62.2353 4.93125C63.5051 6.50846 64.1002 8.3055 64.0337 10.3628C67.5523 8.38263 71.4995 7.47933 75.6438 7.47933C81.5203 7.47933 86.8935 9.50242 91.0122 13.9447C91.3056 14.261 91.5871 14.5833 91.8576 14.9118C92.4373 14.0025 93.2052 13.2307 94.1576 12.6026C96.1671 11.277 98.1328 9.76959 100.042 8.29217C101.793 6.93722 103.779 6.44734 105.924 6.84142C108.069 7.23528 109.776 8.40308 110.982 10.301C112.695 12.9996 114.354 15.7362 115.953 18.5098L115.916 17.5923C115.82 15.2369 116.602 13.171 118.212 11.5219L119.554 10.1468C121.203 8.45754 123.26 7.68382 125.56 7.88697C126.402 7.96143 127.247 8.00077 128.093 8.00077Z" fill="#FEFEFE"/>
</g>
</g>
<path id="Fill 4" fill-rule="evenodd" clip-rule="evenodd" d="M60.6439 45.8473L56.9079 45.8476C56.6482 40.2223 56.5181 34.8415 56.5181 29.7056C56.5181 23.8355 56.6482 17.2734 56.9079 10.0175L55.2989 8C53.8364 8.12184 52.471 8.18343 51.2032 8.18343C50.3577 8.18343 48.9927 8.12184 47.107 8C47.107 10.2822 47.1476 13.7271 47.2287 18.3327C47.3102 22.9391 47.3512 26.4043 47.3512 28.7273C47.3512 30.6427 47.3102 33.5063 47.2287 37.3178C47.1476 41.1295 47.107 43.9724 47.107 45.8473L36.623 45.8476C36.3306 39.081 36.1845 34.1074 36.1845 30.9283C36.1845 29.339 36.2575 26.9643 36.4039 23.8053C36.5502 20.6461 36.623 18.2921 36.623 16.7432L35.4532 14.97H29.4066L27.9926 16.7432C27.9926 18.2921 28.0659 20.6461 28.2123 23.8053C28.3582 26.9645 28.431 29.339 28.431 30.9283C28.431 35.2899 28.2849 40.2631 27.9926 45.8473L17.8013 45.8476C17.8013 43.9315 17.7686 41.0171 17.7038 37.1043C17.6387 33.1909 17.606 30.2555 17.606 28.2993C17.606 26.057 17.6387 22.674 17.7038 18.1493C17.7686 13.6253 17.8013 10.2418 17.8013 8C16.468 8.12184 15.1033 8.18343 13.7052 8.18343C12.3073 8.18343 10.9259 8.12184 9.5605 8L8 10.0175C8.26016 16.2951 8.39046 22.8574 8.39046 29.7056C8.39046 36.5536 8.26016 42.9535 8 48.9046L9.65805 50.9832C11.6409 50.9832 14.6563 50.9122 18.7034 50.7696C22.7503 50.627 25.7822 50.5555 27.7973 50.5555H39.6467C46.8026 50.5555 52.1231 50.8438 55.6094 51.4212C55.7904 53.0331 56.3045 55.2663 56.8805 57L60.4659 56.9314C58.9771 53.098 62.636 49.224 60.6439 45.8473ZM170.137 31.0668V29.0475C170.137 26.9327 170.017 23.3272 169.777 18.2319C165.074 18.7443 162.722 20.9236 162.722 24.7692C162.722 28.5829 165.194 30.6821 170.137 31.0668ZM178 43.3729L176.607 44.4306C175.858 44.3022 174.675 44.2384 173.057 44.2384C171.559 44.2384 170.406 44.3022 169.597 44.4306C169.957 41.4819 170.137 37.6526 170.137 32.9415H167.665C164.729 36.8194 161.764 41.0013 158.768 45.4881C156.731 43.3729 154.634 41.5622 152.477 40.0562C155.353 36.9793 157.914 34.0792 160.161 31.3554C156.866 30.2654 155.218 27.8941 155.218 24.2405C155.218 21.4202 156.507 19.2732 159.083 17.7991C161.15 16.5492 163.651 15.924 166.587 15.924C167.186 15.924 168.084 15.9804 169.283 16.0925C170.481 16.2044 171.38 16.2608 171.979 16.2608C172.428 16.2608 173.911 16.1485 176.427 15.924L177.73 16.9815C177.551 20.1946 177.461 23.9682 177.461 28.3027C177.461 33.919 177.64 38.9423 178 43.3729ZM149.9 42.9401L148.687 44.1418C147.578 44.0462 146.47 43.9979 145.362 43.9979C144.223 43.9979 143.13 44.0462 142.082 44.1421C142.172 40.2004 142.216 36.066 142.216 31.7396H132.061V33.8068C132.061 36.5949 132.106 40.0402 132.196 44.1421C131.148 44.0462 130.054 43.9979 128.916 43.9979C127.837 43.9979 126.744 44.0462 125.636 44.1421L124.378 42.9401C124.557 38.1973 124.647 33.8549 124.647 29.913C124.647 25.939 124.557 21.7248 124.377 17.2701L125.726 15.8761C126.804 15.9723 127.867 16.0203 128.916 16.0203C129.785 16.0203 130.878 15.9723 132.196 15.8761C132.106 19.5455 132.061 22.5179 132.061 24.8014V28.3747H142.216C142.216 23.6796 142.172 19.5134 142.082 15.8761C143.4 15.9723 144.493 16.0203 145.362 16.0203C146.44 16.0203 147.519 15.9723 148.597 15.8761L149.9 17.2701C149.72 20.6991 149.63 24.9133 149.63 29.913C149.63 34.9765 149.72 39.3189 149.9 42.9401ZM110.765 41.0656H95.8464C98.9016 37.316 101.523 32.653 103.71 27.0769C106.346 31.1469 108.698 35.8097 110.765 41.0656ZM122.178 41.0656H119.437C115.453 32.1243 110.75 23.3432 105.327 14.7225C102.661 16.8055 100.534 18.3758 98.9469 19.4333L101.149 22.9908C99.3812 28.5992 97.3291 33.0216 94.9926 36.2585C93.4649 38.3414 92.536 39.5594 92.2066 39.912C91.4277 40.6812 90.2746 41.0656 88.7468 41.0656L89.8253 45.6323C90.8138 44.6709 92.5962 44.1903 95.1723 44.1903H112.203C116.726 44.1903 119.587 44.6709 120.785 45.6323L122.178 41.0656ZM81.4676 31.8838C81.4676 24.673 78.8613 20.0904 73.6488 18.1353C70.9528 20.1224 69.6048 23.3272 69.6048 27.7497C69.6048 34.8964 72.1661 39.4953 77.2888 41.5462C80.0743 39.5273 81.4676 36.3065 81.4676 31.8838ZM89.9151 30.0572C89.9151 34.3517 88.4321 37.8769 85.4666 40.6329C82.5908 43.2287 79.0411 44.5267 74.8171 44.5267C68.8261 44.5267 64.7068 41.7543 62.4603 36.2102C61.6516 34.2233 61.2471 32.1561 61.2471 30.0093C61.2471 25.6184 62.7 22.0772 65.6058 19.3853C68.3916 16.7892 71.9413 15.4917 76.2549 15.4917C80.359 15.4914 83.6615 16.8535 86.1629 19.5773C88.6642 22.3017 89.9151 25.7949 89.9151 30.0572Z" fill="#DC2B1C"/>
<path id="Fill 6" fill-rule="evenodd" clip-rule="evenodd" d="M164.683 52.1866C164.683 52.1143 164.677 52.0548 164.662 52.0095C164.649 51.9647 164.625 51.9306 164.595 51.9064C164.564 51.8833 164.524 51.867 164.477 51.8601C164.43 51.8526 164.373 51.848 164.307 51.848C164.237 51.848 164.178 51.8523 164.129 51.8601C164.079 51.867 164.038 51.8833 164.007 51.9064C163.975 51.9306 163.952 51.9647 163.936 52.0095C163.921 52.0548 163.913 52.1143 163.913 52.1866V52.6959L163.568 53.5843C163.558 53.6087 163.554 53.6284 163.555 53.646C163.556 53.6637 163.564 53.6767 163.58 53.6876C163.594 53.6988 163.619 53.7064 163.653 53.712C163.687 53.7173 163.731 53.7198 163.786 53.7198C163.834 53.7198 163.875 53.7173 163.908 53.712C163.94 53.7064 163.967 53.6998 163.99 53.691C164.013 53.6823 164.032 53.6713 164.048 53.6557C164.064 53.6406 164.078 53.6231 164.092 53.6009L164.472 52.9829C164.511 52.9203 164.544 52.8599 164.57 52.8004C164.596 52.7407 164.619 52.6803 164.636 52.6189C164.652 52.5563 164.665 52.4903 164.673 52.4198C164.679 52.3506 164.683 52.2727 164.683 52.1866ZM80.2985 54.0517C80.2983 53.9598 80.294 53.883 80.2871 53.8197C80.2797 53.7563 80.2699 53.7049 80.2556 53.6674C80.2428 53.6282 80.2245 53.6011 80.2046 53.586C80.1834 53.5694 80.1606 53.5604 80.1349 53.5604H77.2246C77.1965 53.5604 77.1721 53.5694 77.1538 53.586C77.1339 53.6011 77.1169 53.6282 77.104 53.6674C77.0897 53.7049 77.0785 53.7549 77.07 53.8153C77.0615 53.8755 77.0571 53.9493 77.0571 54.0383C77.0571 54.1347 77.0615 54.2176 77.0685 54.2853C77.0756 54.3533 77.0854 54.4059 77.0997 54.4437C77.1127 54.4829 77.131 54.51 77.1509 54.5268C77.1721 54.5417 77.1965 54.5507 77.2246 54.5507H78.1602V57.6499C78.1602 57.6801 78.1674 57.7054 78.183 57.7281C78.1987 57.7493 78.2255 57.769 78.2655 57.7827C78.3066 57.7975 78.3591 57.808 78.4257 57.8158C78.4925 57.8233 78.5762 57.8277 78.6756 57.8277C78.778 57.8277 78.8631 57.8233 78.9312 57.8158C78.9994 57.808 79.0532 57.7975 79.0916 57.7827C79.1298 57.769 79.1584 57.7493 79.1754 57.7281C79.191 57.7057 79.1995 57.6801 79.1995 57.6499V54.5507H80.1349C80.1606 54.5507 80.1834 54.5434 80.2046 54.528C80.2245 54.5132 80.2428 54.4873 80.2556 54.4481C80.2699 54.4106 80.2799 54.3594 80.2871 54.2943C80.294 54.2298 80.2985 54.1484 80.2985 54.0517ZM162.954 57.6287L162.584 53.9403C162.573 53.8138 162.534 53.7186 162.469 53.6552C162.404 53.5921 162.306 53.5604 162.172 53.5604H161.648C161.535 53.5604 161.438 53.5724 161.362 53.5936C161.283 53.6162 161.218 53.6508 161.166 53.6962C161.113 53.7412 161.07 53.8017 161.037 53.8769C161.004 53.9522 160.973 54.0426 160.946 54.1484L160.53 55.4959C160.504 55.5772 160.478 55.6662 160.452 55.7597C160.426 55.8545 160.401 55.9493 160.378 56.0475C160.354 56.144 160.331 56.2405 160.308 56.3341C160.287 56.4288 160.267 56.5149 160.25 56.5948H160.246C160.23 56.5149 160.212 56.4303 160.19 56.3416C160.169 56.2512 160.146 56.1591 160.122 56.0626C160.097 55.9678 160.071 55.8711 160.047 55.7761C160.021 55.6798 159.997 55.5877 159.972 55.5005L159.556 54.1484C159.526 54.0336 159.491 53.9374 159.452 53.8618C159.414 53.7851 159.364 53.7247 159.306 53.681C159.248 53.6357 159.179 53.6055 159.103 53.5875C159.025 53.5694 158.931 53.5604 158.82 53.5604H158.292C158.162 53.5604 158.064 53.5921 158 53.6552C157.937 53.7186 157.897 53.8136 157.884 53.9403L157.519 57.6287C157.516 57.6664 157.519 57.6981 157.529 57.7239C157.538 57.7478 157.558 57.769 157.591 57.7856C157.622 57.8007 157.668 57.8126 157.726 57.8187C157.784 57.8248 157.862 57.8277 157.958 57.8277C158.067 57.8277 158.154 57.8248 158.221 57.8202C158.288 57.8158 158.34 57.8065 158.379 57.7914C158.417 57.7763 158.444 57.7568 158.458 57.7329C158.471 57.7071 158.481 57.6754 158.487 57.6379L158.7 55.5487C158.705 55.4717 158.711 55.3857 158.72 55.2924C158.728 55.1974 158.737 55.1023 158.745 55.0058C158.754 54.9081 158.761 54.8114 158.767 54.7166C158.771 54.6199 158.777 54.5344 158.782 54.4574L158.778 54.3472C158.795 54.4271 158.815 54.5146 158.839 54.6094C158.861 54.7061 158.887 54.8024 158.914 54.8991C158.94 54.9968 158.966 55.0919 158.992 55.1869C159.019 55.2802 159.043 55.3662 159.065 55.443L159.702 57.6199C159.71 57.6574 159.725 57.6905 159.747 57.7161C159.77 57.7434 159.801 57.7646 159.841 57.7809C159.881 57.7975 159.931 57.808 159.99 57.8158C160.05 57.8233 160.124 57.8277 160.209 57.8277C160.304 57.8277 160.382 57.8233 160.444 57.8158C160.507 57.808 160.558 57.7975 160.598 57.7809C160.638 57.7646 160.669 57.7434 160.691 57.7161C160.714 57.6905 160.73 57.6589 160.741 57.624L161.394 55.443C161.417 55.3662 161.44 55.2802 161.465 55.184C161.489 55.0889 161.516 54.9924 161.545 54.8942C161.572 54.798 161.597 54.7015 161.621 54.6082C161.644 54.5132 161.665 54.4271 161.685 54.3472L161.681 54.4574C161.69 54.5344 161.697 54.6199 161.702 54.7166C161.708 54.8114 161.714 54.9079 161.721 55.0058C161.728 55.1026 161.735 55.1974 161.742 55.2924C161.749 55.3857 161.756 55.4715 161.765 55.5487L161.985 57.6635C161.988 57.6996 161.995 57.7281 162.007 57.7493C162.02 57.7719 162.044 57.7885 162.079 57.8007C162.112 57.8126 162.164 57.8202 162.228 57.8233C162.293 57.8263 162.379 57.8277 162.489 57.8277C162.666 57.8277 162.788 57.8126 162.858 57.7827C162.927 57.7539 162.96 57.7027 162.954 57.6287ZM167.256 57.6499V53.7113C167.256 53.6825 167.248 53.6552 167.231 53.6343C167.214 53.6118 167.186 53.5936 167.146 53.5785C167.105 53.5634 167.052 53.5529 166.986 53.5453C166.919 53.5378 166.835 53.5346 166.732 53.5346C166.63 53.5346 166.544 53.5378 166.479 53.5453C166.412 53.5529 166.358 53.5634 166.319 53.5785C166.277 53.5936 166.249 53.6118 166.233 53.6343C166.216 53.6552 166.208 53.6825 166.208 53.7113V57.6499C166.208 57.6801 166.216 57.7054 166.233 57.7281C166.249 57.7493 166.277 57.769 166.319 57.7827C166.358 57.7975 166.412 57.808 166.479 57.8158C166.544 57.8233 166.63 57.8277 166.732 57.8277C166.835 57.8277 166.919 57.8233 166.986 57.8158C167.052 57.808 167.105 57.7975 167.146 57.7827C167.186 57.769 167.214 57.7493 167.231 57.7281C167.248 57.7057 167.256 57.6801 167.256 57.6499ZM166.546 52.3816C166.546 52.1813 166.51 52.0424 166.442 51.9642C166.373 51.8872 166.238 51.848 166.037 51.848C165.847 51.848 165.715 51.8886 165.643 51.9686C165.57 52.05 165.535 52.1947 165.535 52.4045C165.535 52.6019 165.569 52.739 165.638 52.8173C165.708 52.8957 165.842 52.9332 166.037 52.9332C166.232 52.9332 166.365 52.894 166.438 52.8126C166.509 52.7312 166.546 52.588 166.546 52.3816ZM167.943 52.3816C167.943 52.1813 167.909 52.0424 167.839 51.9642C167.769 51.8872 167.636 51.848 167.44 51.848C167.246 51.848 167.114 51.8886 167.043 51.9686C166.972 52.05 166.936 52.1947 166.936 52.4045C166.936 52.6019 166.97 52.739 167.038 52.8173C167.106 52.8957 167.239 52.9332 167.436 52.9332C167.629 52.9332 167.762 52.894 167.835 52.8126C167.907 52.7312 167.943 52.588 167.943 52.3816ZM86.1475 55.6406C86.1475 55.2909 86.1079 54.9805 86.0311 54.7091C85.9531 54.4391 85.8352 54.21 85.6748 54.0246C85.5159 53.8392 85.3142 53.6991 85.07 53.6028C84.8258 53.5076 84.5376 53.4596 84.2054 53.4596C83.8634 53.4596 83.5667 53.5136 83.3125 53.6235C83.0582 53.7322 82.8482 53.8862 82.678 54.085C82.5089 54.2839 82.3826 54.5222 82.2975 54.7995C82.2137 55.0782 82.1711 55.3843 82.1711 55.7205C82.1711 56.0687 82.2095 56.3777 82.2875 56.6477C82.3654 56.9189 82.4847 57.1464 82.6454 57.3316C82.8055 57.5173 83.0086 57.6589 83.2528 57.7568C83.497 57.8536 83.7838 57.9016 84.1131 57.9016C84.4538 57.9016 84.7521 57.8472 85.0074 57.7388C85.263 57.6304 85.4746 57.4749 85.6437 57.2746C85.8126 57.0755 85.9388 56.836 86.0226 56.5599C86.105 56.2829 86.1475 55.9769 86.1475 55.6406ZM85.07 55.6857C85.07 55.4915 85.0559 55.3119 85.026 55.1491C84.9976 54.9846 84.9478 54.8431 84.8785 54.7225C84.8088 54.6019 84.7166 54.5068 84.6017 54.4408C84.4865 54.3731 84.3417 54.3382 84.1672 54.3382C84.0124 54.3382 83.8761 54.3684 83.7597 54.4286C83.6433 54.489 83.5481 54.5777 83.4729 54.694C83.3978 54.8099 83.3424 54.9503 83.304 55.1131C83.2671 55.2773 83.2486 55.4627 83.2486 55.6723C83.2486 55.8667 83.2629 56.0446 83.2939 56.2088C83.3238 56.3716 83.3734 56.5134 83.4416 56.6355C83.5099 56.7561 83.602 56.8494 83.7184 56.9157C83.835 56.9822 83.9782 57.0151 84.1502 57.0151C84.3091 57.0151 84.4453 56.9837 84.5633 56.9232C84.6797 56.8628 84.7747 56.7756 84.8499 56.6611C84.9237 56.5465 84.9791 56.4077 85.0162 56.2434C85.0517 56.0807 85.07 55.8938 85.07 55.6857ZM91.9882 56.4939C91.9882 56.2164 91.9143 55.9903 91.7642 55.8155C91.6151 55.6406 91.3991 55.5261 91.1196 55.4732C91.3439 55.4176 91.5168 55.3104 91.6377 55.1506C91.7583 54.9924 91.818 54.7934 91.818 54.5553C91.818 54.3772 91.7838 54.2237 91.7172 54.0941C91.6491 53.963 91.5439 53.8514 91.4049 53.7624C91.2642 53.672 91.0868 53.6055 90.8725 53.5604C90.6567 53.5168 90.4011 53.4956 90.1045 53.4956C89.9878 53.4956 89.873 53.4971 89.7593 53.4988C89.646 53.5015 89.5366 53.5061 89.4316 53.5107C89.3263 53.5151 89.2285 53.5197 89.1376 53.5258C89.0482 53.5319 88.9687 53.5378 88.899 53.5439C88.7913 53.559 88.7104 53.5997 88.6577 53.6689C88.6052 53.7383 88.5784 53.8406 88.5784 53.9764L88.5782 57.3726C88.5782 57.5141 88.6067 57.6199 88.6619 57.6905C88.7173 57.7615 88.8096 57.8021 88.9403 57.8143C89.0397 57.8263 89.1335 57.8338 89.2213 57.8397C89.308 57.846 89.396 57.8504 89.4825 57.8536C89.5705 57.8565 89.6601 57.8594 89.7539 57.8609C89.8462 57.8623 89.9467 57.8623 90.0546 57.8623C90.3826 57.8623 90.6666 57.8324 90.9081 57.7736C91.1493 57.7149 91.3495 57.6287 91.5115 57.5156C91.6717 57.4025 91.7912 57.261 91.8705 57.0892C91.95 56.9189 91.9882 56.7198 91.9882 56.4939ZM90.8413 54.7541C90.8413 54.6745 90.8285 54.6036 90.8015 54.5417C90.776 54.48 90.7334 54.4271 90.675 54.3847C90.617 54.3428 90.539 54.3097 90.4438 54.287C90.3486 54.2658 90.2323 54.2537 90.096 54.2537C89.991 54.2537 89.8916 54.2568 89.7991 54.2629C89.707 54.2688 89.6246 54.2763 89.5564 54.2853V55.2788H90.1172C90.3529 55.2788 90.5332 55.2337 90.6567 55.1447C90.7787 55.0543 90.8413 54.9245 90.8413 54.7541ZM90.9492 56.489C90.9492 56.3942 90.9349 56.3129 90.9052 56.2422C90.8768 56.1713 90.8285 56.1123 90.7604 56.0655C90.6922 56.0175 90.6027 55.9827 90.4934 55.9615C90.3842 55.9388 90.2535 55.9284 90.1002 55.9284H89.5564V57.059C89.6005 57.0651 89.6472 57.0694 89.6956 57.0741C89.7439 57.0785 89.7935 57.0816 89.8431 57.0846C89.8929 57.0875 89.9425 57.0906 89.991 57.0921C90.039 57.0936 90.083 57.0936 90.1214 57.0936C90.2691 57.0936 90.394 57.0802 90.5006 57.0514C90.6056 57.0244 90.6907 56.9837 90.7575 56.931C90.8243 56.8782 90.8725 56.8131 90.9036 56.7381C90.9335 56.664 90.9492 56.5797 90.9492 56.489ZM97.5564 57.6635V55.0136C97.5564 54.7437 97.5254 54.5085 97.4642 54.3126C97.4032 54.115 97.3067 53.9539 97.1731 53.8287C97.0397 53.7037 96.8708 53.6101 96.6635 53.55C96.4577 53.4895 96.2077 53.4596 95.9166 53.4596C95.7535 53.4596 95.5945 53.473 95.4412 53.5015C95.2879 53.5305 95.1443 53.5648 95.0152 53.6101C94.8847 53.6538 94.7712 53.7022 94.6731 53.7534C94.5764 53.8048 94.5085 53.8514 94.4703 53.8952C94.4319 53.9374 94.4048 53.9854 94.3905 54.0383C94.3764 54.0909 94.3709 54.1633 94.3709 54.2537C94.3709 54.3216 94.3735 54.3835 94.382 54.4408C94.3905 54.4963 94.4035 54.5434 94.4176 54.5809C94.4332 54.6199 94.4533 54.6486 94.4756 54.6698C94.5 54.6908 94.527 54.6998 94.5567 54.6998C94.6021 54.6998 94.6591 54.6803 94.7299 54.6384C94.8009 54.5977 94.8889 54.5521 94.9942 54.5024C95.0989 54.4513 95.2211 54.4059 95.3574 54.3653C95.4953 54.3233 95.6514 54.3036 95.8259 54.3036C95.9595 54.3036 96.0701 54.317 96.1608 54.3472C96.2504 54.3772 96.3228 54.4228 96.3768 54.4844C96.4307 54.5463 96.4704 54.6231 96.4932 54.7166C96.5174 54.8085 96.5287 54.9169 96.5287 55.0407V55.2788H96.1666C95.8373 55.2788 95.5475 55.306 95.2978 55.3589C95.048 55.4113 94.8391 55.4927 94.6716 55.6031C94.5042 55.7144 94.378 55.8531 94.2927 56.0234C94.2089 56.1923 94.1662 56.3913 94.1662 56.6218C94.1662 56.8328 94.1991 57.0183 94.2656 57.1781C94.3324 57.3363 94.4263 57.4705 94.5469 57.5775C94.6675 57.6845 94.8107 57.7658 94.9756 57.8202C95.1403 57.8745 95.3206 57.9016 95.5178 57.9016C95.7564 57.9016 95.9736 57.8533 96.1695 57.7568C96.3639 57.6589 96.5388 57.5231 96.6905 57.3497V57.6635C96.6905 57.7057 96.7032 57.7371 96.726 57.7615C96.7501 57.7841 96.7899 57.8004 96.8467 57.8112C96.9034 57.8216 96.9943 57.8277 97.1192 57.8277C97.2358 57.8277 97.3236 57.8216 97.3833 57.8112C97.4429 57.8007 97.4869 57.7841 97.514 57.7615C97.5423 57.7373 97.5564 57.7054 97.5564 57.6635ZM96.5287 55.9769H96.1297C95.9608 55.9769 95.8159 55.9903 95.6968 56.0158C95.5775 56.0429 95.481 56.0821 95.4057 56.135C95.3304 56.1893 95.2766 56.2527 95.241 56.328C95.2071 56.4033 95.1899 56.489 95.1899 56.5858C95.1899 56.7515 95.2381 56.8813 95.3375 56.9744C95.4354 57.0694 95.5719 57.1162 95.7466 57.1162C95.8941 57.116 96.0288 57.077 96.1523 56.9971C96.2761 56.9172 96.4007 56.8012 96.5287 56.6477V55.9769ZM103.938 55.624C103.938 55.3255 103.91 55.0465 103.854 54.7844C103.799 54.5222 103.711 54.2931 103.59 54.0955C103.47 53.8979 103.315 53.7427 103.123 53.6299C102.932 53.5168 102.7 53.4596 102.429 53.4596C102.298 53.4596 102.175 53.4744 102.06 53.5032C101.945 53.5331 101.834 53.5785 101.725 53.6389C101.617 53.6991 101.512 53.7746 101.407 53.8635C101.303 53.9539 101.197 54.058 101.089 54.1754V53.7113C101.089 53.6825 101.082 53.6552 101.069 53.6343C101.055 53.6118 101.031 53.5936 100.995 53.5785C100.961 53.5634 100.916 53.5529 100.859 53.5453C100.802 53.5378 100.731 53.5346 100.649 53.5346C100.562 53.5346 100.491 53.5378 100.434 53.5453C100.378 53.5529 100.331 53.5634 100.297 53.5785C100.263 53.5936 100.239 53.6121 100.224 53.6343C100.21 53.6555 100.203 53.6825 100.203 53.7113V59.0073C100.203 59.0375 100.212 59.0638 100.229 59.0872C100.245 59.1106 100.273 59.1306 100.314 59.1474C100.353 59.164 100.408 59.1762 100.474 59.1852C100.54 59.1942 100.625 59.1971 100.727 59.1971C100.831 59.1971 100.914 59.1942 100.981 59.1852C101.048 59.1762 101.1 59.1645 101.141 59.1474C101.181 59.1313 101.209 59.1111 101.227 59.0872C101.243 59.0643 101.251 59.0375 101.251 59.0073V57.3589C101.34 57.451 101.425 57.5292 101.509 57.5972C101.593 57.665 101.677 57.7222 101.76 57.7673C101.846 57.8126 101.932 57.8472 102.023 57.8682C102.112 57.8911 102.212 57.9016 102.32 57.9016C102.581 57.9016 102.813 57.8487 103.015 57.7434C103.217 57.6379 103.386 57.4854 103.522 57.2883C103.659 57.0906 103.761 56.8523 103.832 56.5707C103.903 56.2902 103.938 55.9737 103.938 55.624ZM102.848 55.7025C102.848 55.5351 102.836 55.3738 102.814 55.22C102.79 55.0648 102.75 54.9276 102.693 54.807C102.636 54.6864 102.561 54.5899 102.467 54.5175C102.375 54.4454 102.259 54.4091 102.121 54.4091C102.051 54.4091 101.983 54.4196 101.915 54.4423C101.847 54.4649 101.777 54.501 101.706 54.5507C101.635 54.6004 101.563 54.6654 101.488 54.7451C101.414 54.8236 101.334 54.923 101.251 55.0407V56.3385C101.398 56.5361 101.539 56.6884 101.671 56.7951C101.804 56.9035 101.943 56.9564 102.087 56.9564C102.223 56.9564 102.34 56.9203 102.435 56.8465C102.53 56.7724 102.608 56.6762 102.669 56.5573C102.73 56.4379 102.776 56.3036 102.805 56.153C102.834 56.0037 102.848 55.8531 102.848 55.7025ZM110.071 57.6635V53.7113C110.071 53.6825 110.064 53.6552 110.05 53.6313C110.036 53.6087 110.01 53.5892 109.973 53.5738C109.935 53.5604 109.886 53.55 109.822 53.5439C109.758 53.5378 109.677 53.5346 109.58 53.5346C109.493 53.5346 109.424 53.5378 109.37 53.5439C109.316 53.55 109.271 53.559 109.232 53.5724C109.195 53.586 109.164 53.6028 109.139 53.6252C109.115 53.6479 109.09 53.675 109.069 53.7066L107.804 55.5171C107.726 55.6269 107.654 55.7385 107.584 55.8545C107.515 55.9722 107.446 56.0882 107.38 56.2059C107.394 56.0853 107.405 55.96 107.414 55.8304C107.421 55.701 107.425 55.5758 107.425 55.4552L107.425 53.7066C107.425 53.6508 107.385 53.6087 107.304 53.5785C107.225 53.55 107.086 53.5346 106.89 53.5346C106.789 53.5346 106.707 53.5378 106.641 53.5453C106.576 53.5529 106.524 53.5634 106.484 53.5785C106.444 53.5936 106.416 53.6118 106.4 53.6343C106.386 53.6552 106.377 53.681 106.377 53.7066V57.6589C106.377 57.6891 106.386 57.7147 106.4 57.7373C106.416 57.7583 106.443 57.7763 106.48 57.79C106.517 57.8021 106.566 57.8126 106.629 57.8187C106.691 57.8248 106.772 57.8277 106.873 57.8277C106.955 57.8277 107.023 57.8248 107.076 57.8202C107.128 57.8158 107.172 57.8065 107.208 57.7946C107.242 57.7809 107.27 57.7629 107.293 57.7403C107.314 57.7193 107.339 57.692 107.363 57.6589L108.615 55.8531C108.696 55.7354 108.775 55.6165 108.852 55.4973C108.93 55.3784 109.002 55.2563 109.069 55.1328C109.055 55.259 109.045 55.3889 109.038 55.5214C109.031 55.654 109.027 55.7822 109.027 55.9059V57.6635C109.027 57.6937 109.036 57.7176 109.053 57.7388C109.072 57.7597 109.103 57.7763 109.146 57.79C109.188 57.8021 109.244 57.8126 109.312 57.8187C109.38 57.8248 109.464 57.8277 109.563 57.8277C109.664 57.8277 109.746 57.8248 109.812 57.8187C109.877 57.8126 109.928 57.8021 109.966 57.79C110.006 57.7763 110.033 57.7597 110.049 57.7388C110.063 57.7176 110.071 57.6937 110.071 57.6635ZM119.666 56.0867C119.666 55.8923 119.639 55.7173 119.583 55.5624C119.528 55.4055 119.451 55.2697 119.356 55.1538C119.261 55.0361 119.148 54.9427 119.02 54.8689C118.89 54.7948 118.75 54.7437 118.597 54.7135C118.716 54.6669 118.823 54.605 118.915 54.528C119.008 54.4513 119.086 54.364 119.15 54.2629C119.214 54.1633 119.262 54.0517 119.295 53.9296C119.329 53.8075 119.346 53.6779 119.346 53.5395C119.346 53.2922 119.304 53.0765 119.221 52.8942C119.138 52.7117 119.018 52.5612 118.861 52.442C118.705 52.3229 118.512 52.2339 118.283 52.1752C118.054 52.1165 117.775 52.0863 117.445 52.0863H116.094C116.002 52.0863 115.925 52.1148 115.862 52.172C115.8 52.2295 115.769 52.3229 115.769 52.4525V57.4342C115.769 57.5638 115.8 57.6574 115.862 57.7149C115.925 57.7719 116.002 57.8004 116.094 57.8004L117.523 57.8007C117.741 57.8007 117.936 57.7868 118.113 57.7583C118.289 57.7312 118.455 57.6874 118.61 57.6287C118.764 57.5702 118.908 57.4946 119.035 57.4025C119.165 57.3121 119.275 57.2037 119.369 57.077C119.461 56.9505 119.534 56.8041 119.588 56.6384C119.64 56.4742 119.666 56.2902 119.666 56.0867ZM118.252 53.681C118.252 53.5648 118.235 53.4625 118.202 53.3718C118.169 53.28 118.118 53.2049 118.052 53.1445C117.986 53.0841 117.903 53.0373 117.8 53.0041C117.699 52.9727 117.564 52.9559 117.396 52.9559H116.842V54.4391H117.454C117.611 54.4391 117.738 54.4196 117.831 54.3804C117.927 54.3411 118.005 54.2853 118.067 54.2176C118.129 54.1484 118.175 54.067 118.206 53.9734C118.236 53.8816 118.252 53.7836 118.252 53.681ZM118.53 56.1274C118.53 55.9946 118.51 55.8757 118.468 55.7717C118.426 55.6662 118.365 55.5787 118.286 55.508C118.205 55.4386 118.103 55.3828 117.978 55.345C117.853 55.3075 117.691 55.288 117.491 55.288H116.842V56.9128H117.633C117.785 56.9128 117.912 56.8962 118.017 56.8616C118.121 56.8285 118.21 56.7788 118.287 56.7122C118.364 56.646 118.423 56.5631 118.466 56.4652C118.509 56.3655 118.53 56.2539 118.53 56.1274ZM125.245 57.6635L125.245 55.0136C125.245 54.7437 125.214 54.5085 125.153 54.3126C125.092 54.115 124.995 53.9539 124.862 53.8287C124.728 53.7037 124.559 53.6101 124.352 53.55C124.147 53.4895 123.897 53.4596 123.605 53.4596C123.442 53.4596 123.283 53.473 123.13 53.5015C122.977 53.5305 122.833 53.5648 122.704 53.6101C122.574 53.6538 122.46 53.7022 122.362 53.7534C122.265 53.8048 122.197 53.8514 122.159 53.8952C122.12 53.9374 122.093 53.9854 122.079 54.0383C122.065 54.0909 122.059 54.1633 122.059 54.2537C122.059 54.3216 122.062 54.3835 122.071 54.4408C122.079 54.4963 122.092 54.5434 122.106 54.5809C122.122 54.6199 122.142 54.6486 122.165 54.6698C122.189 54.6908 122.216 54.6998 122.245 54.6998C122.291 54.6998 122.348 54.6803 122.418 54.6384C122.49 54.5977 122.578 54.5521 122.683 54.5024C122.788 54.4513 122.91 54.4059 123.046 54.3653C123.184 54.3233 123.34 54.3036 123.515 54.3036C123.648 54.3036 123.759 54.317 123.85 54.3472C123.939 54.3772 124.011 54.4228 124.065 54.4844C124.119 54.5463 124.159 54.6231 124.182 54.7166C124.206 54.8085 124.217 54.9169 124.217 55.0407V55.2788H123.855C123.526 55.2788 123.237 55.306 122.986 55.3589C122.737 55.4113 122.528 55.4927 122.361 55.6031C122.193 55.7144 122.067 55.8531 121.981 56.0234C121.897 56.1923 121.855 56.3913 121.855 56.6218C121.855 56.8328 121.888 57.0183 121.954 57.1781C122.021 57.3363 122.115 57.4705 122.235 57.5775C122.356 57.6845 122.5 57.7658 122.664 57.8202C122.829 57.8745 123.009 57.9016 123.207 57.9016C123.445 57.9016 123.662 57.8533 123.858 57.7568C124.053 57.6589 124.227 57.5231 124.379 57.3497V57.6635C124.379 57.7057 124.392 57.7371 124.415 57.7615C124.439 57.7841 124.478 57.8004 124.535 57.8112C124.592 57.8216 124.683 57.8277 124.808 57.8277C124.924 57.8277 125.012 57.8216 125.072 57.8112C125.132 57.8007 125.176 57.7841 125.203 57.7615C125.231 57.7373 125.245 57.7054 125.245 57.6635ZM124.217 55.9769H123.819C123.649 55.9769 123.505 55.9903 123.386 56.0158C123.266 56.0429 123.17 56.0821 123.094 56.135C123.019 56.1893 122.965 56.2527 122.93 56.328C122.896 56.4033 122.879 56.489 122.879 56.5858C122.879 56.7515 122.927 56.8813 123.026 56.9744C123.124 57.0694 123.26 57.1162 123.435 57.1162C123.583 57.116 123.718 57.077 123.841 56.9971C123.965 56.9172 124.09 56.8012 124.217 56.6477V55.9769ZM133.332 57.4432V53.7113C133.332 53.6825 133.323 53.6552 133.305 53.6343C133.287 53.6118 133.258 53.5936 133.218 53.5785C133.177 53.5634 133.123 53.5529 133.055 53.5453C132.988 53.5378 132.902 53.5346 132.799 53.5346C132.7 53.5346 132.618 53.5378 132.553 53.5453C132.487 53.5529 132.435 53.5634 132.396 53.5785C132.358 53.5936 132.331 53.6118 132.315 53.6343C132.3 53.6552 132.293 53.6825 132.293 53.7113V56.8735H131.116L131.116 53.7113C131.116 53.6825 131.107 53.6552 131.09 53.6343C131.073 53.6118 131.046 53.5936 131.009 53.5785C130.972 53.5634 130.918 53.5529 130.852 53.5453C130.784 53.5378 130.7 53.5346 130.599 53.5346C130.5 53.5346 130.417 53.5378 130.352 53.5453C130.287 53.5529 130.237 53.5634 130.203 53.5785C130.167 53.5936 130.143 53.6118 130.129 53.6343C130.116 53.6552 130.109 53.6825 130.109 53.7113V56.8735H128.933L128.932 53.7113C128.932 53.6825 128.924 53.6552 128.908 53.6343C128.894 53.6118 128.867 53.5936 128.83 53.5785C128.792 53.5634 128.741 53.5529 128.675 53.5453C128.61 53.5378 128.526 53.5346 128.424 53.5346C128.322 53.5346 128.237 53.5378 128.169 53.5453C128.1 53.5529 128.047 53.5634 128.004 53.5785C127.963 53.5936 127.933 53.6118 127.917 53.6343C127.9 53.6552 127.892 53.6825 127.892 53.7113V57.4432C127.892 57.5612 127.916 57.6499 127.963 57.7103C128.01 57.7705 128.083 57.8004 128.183 57.8004L133.041 57.8007C133.14 57.8007 133.214 57.7705 133.261 57.7103C133.309 57.6499 133.332 57.5609 133.332 57.4432ZM139.748 55.6406C139.748 55.2909 139.708 54.9805 139.631 54.7091C139.553 54.4391 139.435 54.21 139.275 54.0246C139.116 53.8392 138.914 53.6991 138.67 53.6028C138.426 53.5076 138.138 53.4596 137.805 53.4596C137.463 53.4596 137.167 53.5136 136.912 53.6235C136.658 53.7322 136.448 53.8862 136.278 54.085C136.109 54.2839 135.983 54.5222 135.897 54.7995C135.814 55.0782 135.771 55.3843 135.771 55.7205C135.771 56.0687 135.809 56.3777 135.887 56.6477C135.966 56.9189 136.085 57.1464 136.245 57.3316C136.406 57.5173 136.609 57.6589 136.853 57.7568C137.097 57.8536 137.384 57.9016 137.713 57.9016C138.054 57.9016 138.352 57.8472 138.608 57.7388C138.863 57.6304 139.075 57.4749 139.244 57.2746C139.413 57.0755 139.539 56.836 139.623 56.5599C139.705 56.2829 139.748 55.9769 139.748 55.6406ZM138.67 55.6857C138.67 55.4915 138.656 55.3119 138.626 55.1491C138.598 54.9846 138.548 54.8431 138.478 54.7225C138.409 54.6019 138.317 54.5068 138.202 54.4408C138.087 54.3731 137.942 54.3382 137.767 54.3382C137.613 54.3382 137.476 54.3684 137.36 54.4286C137.243 54.489 137.148 54.5777 137.073 54.694C136.998 54.8099 136.942 54.9503 136.904 55.1131C136.867 55.2773 136.849 55.4627 136.849 55.6723C136.849 55.8667 136.863 56.0446 136.894 56.2088C136.924 56.3716 136.974 56.5134 137.042 56.6355C137.11 56.7561 137.202 56.8494 137.319 56.9157C137.435 56.9822 137.578 57.0151 137.75 57.0151C137.909 57.0151 138.046 56.9837 138.163 56.9232C138.28 56.8628 138.375 56.7756 138.45 56.6611C138.524 56.5465 138.579 56.4077 138.616 56.2434C138.652 56.0807 138.67 55.8938 138.67 55.6857ZM143.226 57.6499V53.7113C143.226 53.6825 143.219 53.6552 143.202 53.6343C143.185 53.6118 143.157 53.5936 143.117 53.5785C143.076 53.5634 143.023 53.5529 142.956 53.5453C142.889 53.5378 142.806 53.5346 142.702 53.5346C142.6 53.5346 142.515 53.5378 142.45 53.5453C142.383 53.5529 142.329 53.5634 142.289 53.5785C142.248 53.5936 142.219 53.6118 142.204 53.6343C142.187 53.6552 142.178 53.6825 142.178 53.7113V57.6499C142.178 57.6801 142.187 57.7054 142.204 57.7281C142.219 57.7493 142.248 57.769 142.289 57.7827C142.329 57.7975 142.383 57.808 142.45 57.8158C142.515 57.8233 142.6 57.8277 142.702 57.8277C142.806 57.8277 142.89 57.8233 142.956 57.8158C143.023 57.808 143.076 57.7975 143.117 57.7827C143.157 57.769 143.185 57.7493 143.202 57.7281C143.219 57.7057 143.226 57.6801 143.226 57.6499ZM142.516 52.3816C142.516 52.1813 142.481 52.0424 142.412 51.9642C142.343 51.8872 142.208 51.848 142.008 51.848C141.818 51.848 141.686 51.8886 141.613 51.9686C141.541 52.05 141.505 52.1947 141.505 52.4045C141.505 52.6019 141.539 52.739 141.609 52.8173C141.679 52.8957 141.812 52.9332 142.008 52.9332C142.202 52.9332 142.336 52.894 142.408 52.8126C142.479 52.7312 142.516 52.588 142.516 52.3816ZM143.913 52.3816C143.913 52.1813 143.879 52.0424 143.809 51.9642C143.74 51.8872 143.607 51.848 143.411 51.848C143.216 51.848 143.084 51.8886 143.013 51.9686C142.942 52.05 142.907 52.1947 142.906 52.4045C142.906 52.6019 142.941 52.739 143.009 52.8173C143.077 52.8957 143.209 52.9332 143.406 52.9332C143.599 52.9332 143.733 52.894 143.805 52.8126C143.878 52.7312 143.913 52.588 143.913 52.3816ZM151.666 57.0229C151.666 56.9264 151.664 56.8465 151.657 56.7846C151.652 56.7227 151.645 56.6715 151.635 56.6323C151.625 56.5931 151.612 56.566 151.595 56.5509C151.578 56.5361 151.558 56.5283 151.533 56.5283C151.497 56.5283 151.452 56.5509 151.399 56.598C151.347 56.6428 151.281 56.6942 151.203 56.75C151.127 56.8058 151.036 56.857 150.932 56.9023C150.827 56.9474 150.704 56.97 150.559 56.97C150.418 56.97 150.293 56.943 150.187 56.8886C150.08 56.8343 149.991 56.7529 149.921 56.6428C149.85 56.5346 149.796 56.3986 149.761 56.2376C149.724 56.0748 149.707 55.8877 149.707 55.6767C149.707 55.2473 149.78 54.9201 149.923 54.6986C150.068 54.4754 150.275 54.3653 150.548 54.3653C150.685 54.3653 150.805 54.3847 150.905 54.4271C151.004 54.4678 151.09 54.5132 151.162 54.5643C151.235 54.614 151.297 54.6591 151.349 54.6998C151.402 54.7422 151.452 54.7617 151.5 54.7617C151.544 54.7617 151.58 54.7271 151.608 54.6591C151.635 54.5899 151.649 54.4693 151.649 54.299C151.649 54.2251 151.648 54.1618 151.643 54.1106C151.639 54.0595 151.634 54.0156 151.626 53.981C151.619 53.9449 151.609 53.9162 151.596 53.8952C151.585 53.8726 151.563 53.8455 151.533 53.8121C151.502 53.7805 151.451 53.7427 151.377 53.6976C151.303 53.6538 151.22 53.6145 151.127 53.5785C151.034 53.5439 150.935 53.5151 150.827 53.4956C150.721 53.4744 150.613 53.4639 150.501 53.4639C150.229 53.4639 149.98 53.5093 149.752 53.6011C149.525 53.6915 149.328 53.8316 149.162 54.02C148.996 54.2086 148.867 54.4466 148.773 54.7332C148.681 55.021 148.634 55.3616 148.634 55.7566C148.634 56.0972 148.672 56.4003 148.749 56.6657C148.824 56.931 148.938 57.1555 149.087 57.3392C149.237 57.5231 149.422 57.662 149.642 57.7568C149.863 57.8504 150.116 57.8972 150.401 57.8972C150.529 57.8972 150.652 57.8865 150.773 57.8623C150.894 57.8382 151.006 57.808 151.108 57.769C151.21 57.7312 151.303 57.6874 151.382 57.6394C151.463 57.5911 151.52 57.549 151.554 57.5156C151.587 57.4825 151.608 57.4539 151.618 57.4313C151.628 57.4103 151.636 57.3813 151.643 57.3455C151.649 57.3107 151.655 57.2671 151.659 57.2159C151.663 57.1645 151.666 57.0997 151.666 57.0229ZM155.074 57.6499V53.7203C155.074 53.6901 155.066 53.6642 155.049 53.6435C155.032 53.6209 155.004 53.6011 154.964 53.586C154.923 53.5694 154.871 53.5575 154.804 53.5485C154.737 53.5395 154.653 53.5346 154.55 53.5346C154.448 53.5346 154.362 53.5395 154.297 53.5485C154.23 53.5575 154.176 53.5694 154.137 53.586C154.095 53.6011 154.067 53.6209 154.051 53.6435C154.034 53.6642 154.026 53.6901 154.026 53.7203V57.6499C154.026 57.6801 154.035 57.7054 154.051 57.7281C154.067 57.7493 154.095 57.769 154.137 57.7827C154.176 57.7975 154.23 57.808 154.297 57.8158C154.362 57.8233 154.448 57.8277 154.55 57.8277C154.653 57.8277 154.737 57.8233 154.804 57.8158C154.871 57.808 154.923 57.7975 154.964 57.7827C155.004 57.769 155.032 57.7493 155.049 57.7281C155.066 57.7057 155.074 57.6801 155.074 57.6499ZM155.153 52.3772C155.153 52.163 155.112 52.0139 155.028 51.9293C154.946 51.8453 154.787 51.8029 154.554 51.8029C154.318 51.8029 154.158 51.8465 154.074 51.934C153.989 52.0212 153.946 52.1767 153.946 52.3999C153.946 52.6153 153.988 52.7629 154.07 52.846C154.152 52.9288 154.31 52.9695 154.545 52.9695C154.778 52.9695 154.939 52.9274 155.024 52.8414C155.11 52.7556 155.153 52.6016 155.153 52.3772ZM70.8354 50H174.164C176.824 50 179 52.4751 179 55.5002H179C179 58.5251 176.824 61 174.164 61H70.8354C68.176 61 66 58.5251 66 55.5002C66 52.4751 68.176 50 70.8354 50Z" fill="#3C2A98"/>
</g>
</g>
</svg>