<svg xmlns="http://www.w3.org/2000/svg" xmlns:xlink="http://www.w3.org/1999/xlink" version="1.1" id="Слой_1" x="0px" y="0px" width="230" height="100px" viewBox="0 0 484 54.5" style="enable-background:new 0 0 484 54.5;" xml:space="preserve">
<style type="text/css">
	.st0{fill:#004B91;}
</style>
<g>
	<g id="XMLID_270_">
		<path id="XMLID_283_" class="st0" d="M142.8,1.1H135h-4.9h-5h-3.1l-16.3,52.3h14.5l3-10.5H142l3,10.5h15L143.8,1.1H142.8z     M126.7,30.2l4.4-15.6h2.8l4.5,15.6H126.7z"/>
		<path id="XMLID_280_" class="st0" d="M422.8,1.1h-7.8h-4.9h-5H402l-16.3,52.3h14.5l3-10.5h18.9l3,10.5h15L423.9,1.1H422.8z     M406.8,30.2l4.4-15.6h2.8l4.5,15.6H406.8z"/>
		<polygon id="XMLID_279_" class="st0" points="172.8,1.1 165,1.1 165,53.4 179.2,53.4 179.2,14.6 201.5,14.6 201.5,1.1 179.2,1.1       "/>
		<path id="XMLID_276_" class="st0" d="M231.2,1.1h-9.7h-6.4h-7.8v52.3h14.2V38h9.7c13.2,0,19.9-8.3,19.9-18.4    C251.2,9.4,244.4,1.1,231.2,1.1z M231.2,25.3h-9.7V13.8h9.7c3.9,0,5.7,2.6,5.7,5.7C237,22.7,235.1,25.3,231.2,25.3z"/>
		<path id="XMLID_273_" class="st0" d="M283.8,0c-15.9,0-28,11.8-28,27.3c0,15.5,12.1,27.3,28,27.3c15.9,0,28-11.8,28-27.3    C311.8,11.8,299.7,0,283.8,0z M283.8,40.3c-7.6,0-13.1-5.5-13.1-13.1c0-7.6,5.5-13.1,13.1-13.1s13.1,5.5,13.1,13.1    C296.9,34.9,291.4,40.3,283.8,40.3z"/>
		<polygon id="XMLID_272_" class="st0" points="366.4,1.1 361.7,1.1 349.7,23.8 337.9,1.1 332.8,1.1 325.2,1.1 318.6,1.1     318.6,53.4 332.8,53.4 332.8,21.4 344,42.9 354.9,42.9 366.4,21.2 366.4,53.4 380.6,53.4 380.6,1.1 373.8,1.1   "/>
		<polygon id="XMLID_271_" class="st0" points="484,1.1 466.8,1.1 452.6,1.1 435.4,1.1 435.4,14.6 452.6,14.6 452.6,53.4     466.8,53.4 466.8,14.6 484,14.6   "/>
	</g>
	<path id="XMLID_219_" class="st0" d="M55.4,1.1L35.3,12.8L15.2,1.1L0,27.3l20.3,11.8v14.2h30.3V38.9l19.9-11.6L55.4,1.1z    M35.3,18.2l5.3,9.2H30L35.3,18.2z M20.3,35.1L4.7,26.1L16.5,5.9l16.4,9.6l-7,12l-2,3.5l-0.1,0.2l-2.6,4.5L20.3,35.1z M47.2,49.9   H23.8V38l4.1-7.1h14.7l4.5,7.8V49.9z M49.4,35.6l-2.2-3.8l-0.5-0.9l-2-3.5l-7-12l16.4-9.6l11.7,20.2l-15.2,8.8L49.4,35.6z"/>
</g>
</svg>