<svg width="443" height="98" fill="none" xmlns="http://www.w3.org/2000/svg"><g clip-path="url(#a)" fill="#3DAE2B"><path d="M340.1 55.8c0 3.2-.3 10.4-2.7 15.2-3 6.2-8.6 7.8-13.3 7.8-4.7 0-10.3-1.6-13.3-7.8-2.4-4.9-2.7-12-2.7-15.2V1.6h-24.8V60c0 7.1.9 17.2 8.4 25.6 9.6 10.8 24.1 11.9 32.4 11.9 8.3 0 22.8-1.1 32.4-11.9 7.5-8.4 8.4-18.5 8.4-25.6V1.6h-24.8v54.2Zm-108 19.8h-.3l-20.4-74h-26.2l30.9 94.2h30.3l31.4-94.2h-25.2l-20.5 74ZM141.1 0c-8 0-23 1.2-34 12.5-10.9 11.2-12.3 26.9-12.3 36.2 0 9.3 1.4 25 12.3 36.2 11.2 11.4 26.5 12.5 34.4 12.5 7.9 0 23.2-1.1 34.4-12.5 10.9-11.2 12.2-26.9 12.2-36.2 0-9.3-1.3-25-12.2-36.2-11-11.3-26-12.5-34-12.5h-.8Zm15.7 71.2c-2.9 4.2-7.9 7.7-15.3 7.7-7.5 0-12.4-3.5-15.3-7.7-5.1-6.9-5.7-16.4-5.7-22.5 0-6.1.7-15.6 5.7-22.5 2.9-4.2 7.9-7.7 15.3-7.7 7.5 0 12.4 3.5 15.3 7.7 5.1 6.9 5.7 16.4 5.7 22.5 0 6.1-.6 15.6-5.7 22.5Zm277.3-24.6c-4.9-4-13.9-7-18.5-8.2l-1.5-.4c-7.7-2.1-12.3-3.9-14.3-6.5-.8-.9-1.4-2.6-1.4-4.4 0-2.3 1.1-5.1 4.8-6.8 3.8-1.8 8.2-1.9 11.4-1.8 5.5.2 15.4 2.9 20.3 8.3 0 0 3.4-7 1.8-12.9-1.8-6.8-6.9-10.5-12-12.2-4-1.3-9.9-1.8-13.2-1.8h-.6c-8.5 0-16 1.4-23 5-10.6 5.5-14.9 14-14.9 24.3 0 3.6.8 8.1 2.3 11.5 3.5 7.5 11.3 12.2 18.7 14.5l3.9 1.2c6.8 2.1 12 3.4 15.6 6.2 2.3 1.8 3.6 3.8 3.6 7s-1.6 5.2-3.3 6.5c-2.8 2.2-8.2 2.8-12.1 2.8-6.4 0-17.1-2.5-25.6-11.9 0 0-2.7 8-1.3 14.3 1.4 6.2 6.9 10.2 11.6 12.5 5.2 2.5 12.3 3.7 17.5 3.7 9.2 0 19.8-1.5 28-7.7 5.3-4 10.6-11.2 10.6-23.4 0-6.8-1.6-14.3-8.4-19.8ZM63.5 65.3h-.3S48.4 35.2 41.8 21.8C35.2 8.4 21.7 1.2 9.5 1.2H0v94.5h22.8L22 31.2h.3S39.8 66 44.7 75.6c7.2 14 17 20.1 30.2 20.1h10.8V1.2H63.1l.4 64.1Z"/></g><defs><clipPath id="a"><path fill="#fff" d="M0 0h442.5v97.5H0z"/></clipPath></defs></svg>