<svg xmlns="http://www.w3.org/2000/svg" width="185" height="65" fill="none"><mask id="a" mask-type="alpha" maskUnits="userSpaceOnUse" x="0" y="0" width="185" height="65"><path fill-rule="evenodd" clip-rule="evenodd" d="M0 .086h184.644v64.372H0V.086Z" fill="#fff"/></mask><g mask="url(#a)"><path fill-rule="evenodd" clip-rule="evenodd" d="M128.093 8c.909 0 1.831-.057 2.738-.122 2.062-.15 3.908.48 5.451 1.851 1.543-1.372 3.39-2 5.451-1.851.907.065 1.83.123 2.739.123.86 0 1.72-.038 2.578-.114 2.345-.207 4.443.604 6.097 2.356l.771.817.49-.291c3.434-2.035 7.28-2.863 11.203-2.863 1.114 0 2.251.095 3.361.197.632.059 1.321.131 1.959.135 1.252-.04 2.588-.193 3.837-.304 1.979-.174 3.737.365 5.313 1.632l1.298 1.043c2.077 1.669 3.135 4.095 2.981 6.83-.201 3.556-.256 7.133-.256 10.694 0 4.723.124 9.474.509 14.18.238 2.894-.908 5.5-3.162 7.196l-1.387 1.043a9.29 9.29 0 0 1-.243.176 8.736 8.736 0 0 1 1.66 5.146c0 4.692-3.658 8.518-8.142 8.518H70.735c-2.112 0-4.04-.848-5.49-2.236-1.371 1.414-3.163 2.194-5.188 2.233l-3.571.068c-3.362.063-6.256-2.042-7.37-5.362l-.253-.784c-3.257-.211-6.624-.21-9.68-.21H27.381c-2.928 0-5.875.104-8.8.206-3.082.108-6.183.216-9.265.216-2.34 0-4.353-.98-5.86-2.852l-1.652-2.05C.512 52.017-.083 50.18.01 48.085c.273-6.184.38-12.378.38-18.568C.39 23.16.275 16.8.01 10.447c-.088-2.045.48-3.835 1.72-5.422l1.554-1.99C4.934.922 7.267-.112 9.864.118a39.52 39.52 0 0 0 6.901.002c2.218-.201 4.2.504 5.84 2.078 1.628 1.562 2.47 3.548 2.484 5.853 1.148-.717 2.46-1.086 3.895-1.086h6.023c1.451 0 2.788.383 3.943 1.11.008-2.28.823-4.243 2.413-5.808C42.96.696 44.893-.036 47.081.105 48.27.18 49.503.27 50.692.27c1.16 0 2.322-.061 3.478-.157 2.543-.21 4.82.786 6.463 2.827l1.602 1.99c1.27 1.577 1.865 3.375 1.799 5.432 3.518-1.98 7.465-2.884 11.61-2.884 5.876 0 11.25 2.023 15.368 6.466.294.316.575.638.846.967a7.74 7.74 0 0 1 2.3-2.31c2.01-1.325 3.975-2.832 5.884-4.31 1.751-1.355 3.737-1.845 5.882-1.45 2.145.393 3.852 1.561 5.058 3.459a225.148 225.148 0 0 1 4.971 8.209l-.037-.918c-.096-2.355.686-4.421 2.296-6.07l1.342-1.375c1.649-1.69 3.706-2.463 6.006-2.26.842.074 1.687.114 2.533.114Z" fill="#FEFEFE"/></g><path fill-rule="evenodd" clip-rule="evenodd" d="M60.644 45.847h-3.736c-.26-5.625-.39-11.005-.39-16.141 0-5.87.13-12.433.39-19.688L55.298 8a49.534 49.534 0 0 1-4.095.183c-.845 0-2.21-.061-4.096-.183 0 2.282.04 5.727.122 10.333.081 4.606.122 8.071.122 10.394 0 1.916-.04 4.78-.122 8.59-.081 3.813-.122 6.655-.122 8.53H36.623c-.292-6.766-.438-11.74-.438-14.919 0-1.589.072-3.964.219-7.123.146-3.159.219-5.513.219-7.062l-1.17-1.773h-6.046l-1.414 1.773c0 1.55.073 3.903.22 7.062.145 3.16.218 5.534.218 7.123 0 4.362-.146 9.335-.438 14.92H17.8c0-1.916-.032-4.83-.097-8.744a579.536 579.536 0 0 1-.098-8.805c0-2.242.033-5.625.098-10.15.065-4.524.097-7.907.097-10.149a46.608 46.608 0 0 1-8.24 0L8 10.018c.26 6.277.39 12.84.39 19.688 0 6.848-.13 13.247-.39 19.199l1.658 2.078c1.983 0 4.998-.07 9.045-.213s7.08-.215 9.094-.215h11.85c7.156 0 12.476.289 15.962.866.181 1.612.695 3.845 1.271 5.579l3.586-.069c-1.489-3.833 2.17-7.707.178-11.084Zm109.493-14.78v-2.02c0-2.114-.12-5.72-.36-10.815-4.703.512-7.055 2.692-7.055 6.537 0 3.814 2.472 5.913 7.415 6.298ZM178 43.373l-1.393 1.058c-.749-.129-1.932-.193-3.55-.193-1.498 0-2.651.064-3.46.193.36-2.95.54-6.778.54-11.49h-2.472a259.908 259.908 0 0 0-8.897 12.547c-2.037-2.115-4.134-3.926-6.291-5.432 2.876-3.077 5.437-5.977 7.684-8.7-3.295-1.09-4.943-3.462-4.943-7.116 0-2.82 1.289-4.967 3.865-6.44 2.067-1.25 4.568-1.876 7.504-1.876.599 0 1.497.056 2.696.169 1.198.111 2.097.168 2.696.168.449 0 1.932-.113 4.448-.337l1.303 1.058c-.179 3.213-.269 6.986-.269 11.32 0 5.617.179 10.64.539 15.07Zm-28.1-.433-1.213 1.202a38.692 38.692 0 0 0-3.325-.144c-1.139 0-2.232.048-3.28.144.09-3.942.134-8.076.134-12.402h-10.155v2.067c0 2.788.045 6.233.135 10.335a36.022 36.022 0 0 0-3.28-.144c-1.079 0-2.172.048-3.28.144l-1.258-1.202a347.7 347.7 0 0 0 .269-13.027c0-3.974-.09-8.188-.27-12.643l1.349-1.394c1.078.096 2.141.144 3.19.144.869 0 1.962-.048 3.28-.144-.09 3.67-.135 6.642-.135 8.925v3.574h10.155c0-4.695-.044-8.862-.134-12.499a46.55 46.55 0 0 0 3.28.144c1.078 0 2.157-.048 3.235-.144l1.303 1.394c-.18 3.43-.27 7.643-.27 12.643 0 5.064.09 9.406.27 13.027Zm-39.135-1.874H95.846c3.056-3.75 5.677-8.413 7.864-13.99 2.636 4.07 4.988 8.734 7.055 13.99Zm11.413 0h-2.741c-3.984-8.942-8.687-17.723-14.11-26.344-2.666 2.083-4.793 3.654-6.38 4.711l2.202 3.558c-1.768 5.608-3.82 10.03-6.156 13.267-1.528 2.083-2.457 3.301-2.786 3.654-.78.77-1.932 1.154-3.46 1.154l1.078 4.566c.989-.961 2.771-1.442 5.347-1.442h17.031c4.523 0 7.384.48 8.582 1.442l1.393-4.566Zm-40.71-9.182c0-7.211-2.607-11.794-7.82-13.749-2.695 1.987-4.043 5.192-4.043 9.615 0 7.146 2.561 11.745 7.684 13.796 2.785-2.019 4.179-5.24 4.179-9.662Zm8.447-1.827c0 4.295-1.483 7.82-4.448 10.576-2.876 2.596-6.426 3.894-10.65 3.894-5.99 0-10.11-2.773-12.357-8.317a16.298 16.298 0 0 1-1.213-6.2c0-4.392 1.453-7.933 4.359-10.625 2.786-2.596 6.335-3.893 10.649-3.893 4.104 0 7.407 1.361 9.908 4.085 2.501 2.725 3.752 6.218 3.752 10.48Z" fill="#DC2B1C"/><path fill-rule="evenodd" clip-rule="evenodd" d="M164.683 52.187a.584.584 0 0 0-.021-.177.202.202 0 0 0-.067-.104.26.26 0 0 0-.118-.046 1.146 1.146 0 0 0-.348 0 .262.262 0 0 0-.122.046.214.214 0 0 0-.071.104.576.576 0 0 0-.023.177v.509l-.345.888a.142.142 0 0 0-.013.062c.001.018.009.03.025.042a.167.167 0 0 0 .073.024.896.896 0 0 0 .337-.021.163.163 0 0 0 .058-.035.275.275 0 0 0 .044-.055l.38-.618a1.433 1.433 0 0 0 .164-.364 1.47 1.47 0 0 0 .047-.432Zm-84.384 1.865c0-.092-.005-.169-.012-.232a.665.665 0 0 0-.031-.153.164.164 0 0 0-.051-.081.11.11 0 0 0-.07-.026h-2.91a.103.103 0 0 0-.071.026.164.164 0 0 0-.05.081.706.706 0 0 0-.034.148 2.434 2.434 0 0 0-.001.47c.007.068.016.12.03.159a.191.191 0 0 0 .052.083.126.126 0 0 0 .074.024h.935v3.099c0 .03.007.055.023.078a.17.17 0 0 0 .082.055.736.736 0 0 0 .16.033 2.444 2.444 0 0 0 .506 0 .686.686 0 0 0 .16-.033.188.188 0 0 0 .084-.055.133.133 0 0 0 .025-.078v-3.1h.935a.115.115 0 0 0 .07-.022.158.158 0 0 0 .05-.08.65.65 0 0 0 .032-.154c.007-.064.011-.146.011-.242Zm82.655 3.577-.37-3.689a.438.438 0 0 0-.115-.285c-.065-.063-.163-.095-.297-.095h-.524c-.113 0-.21.012-.286.034a.504.504 0 0 0-.196.102.491.491 0 0 0-.129.18 1.77 1.77 0 0 0-.091.272l-.416 1.348a7.285 7.285 0 0 0-.152.551l-.07.287-.058.26h-.004a5.66 5.66 0 0 0-.056-.252l-.068-.28c-.025-.094-.051-.19-.075-.286-.026-.096-.05-.188-.075-.276l-.416-1.352a1.414 1.414 0 0 0-.104-.286.502.502 0 0 0-.349-.275 1.268 1.268 0 0 0-.283-.027h-.528c-.13 0-.228.032-.292.095a.46.46 0 0 0-.116.285l-.365 3.689c-.003.037 0 .07.01.095a.118.118 0 0 0 .062.062.42.42 0 0 0 .135.033 3.926 3.926 0 0 0 .495.002.548.548 0 0 0 .158-.03.153.153 0 0 0 .079-.058.326.326 0 0 0 .029-.095l.213-2.09c.005-.076.011-.162.02-.256l.025-.286c.009-.098.016-.195.022-.29.004-.096.01-.182.015-.259l-.004-.11c.017.08.037.168.061.262a41.961 41.961 0 0 0 .153.578l.073.256.637 2.177a.22.22 0 0 0 .045.096.235.235 0 0 0 .094.065c.04.017.09.027.149.035a1.995 1.995 0 0 0 .454 0 .605.605 0 0 0 .154-.035.225.225 0 0 0 .093-.065.247.247 0 0 0 .05-.092l.653-2.181c.023-.077.046-.163.071-.259a7.5 7.5 0 0 1 .08-.29 13.547 13.547 0 0 0 .14-.547l-.004.11c.009.077.016.163.021.26l.019.289.021.286c.007.094.014.18.023.257l.22 2.114a.21.21 0 0 0 .022.086c.013.023.037.04.072.052.033.012.085.02.149.022.065.003.151.005.261.005.177 0 .299-.015.369-.045.069-.03.102-.08.096-.154Zm4.302.02v-3.938a.12.12 0 0 0-.025-.077.185.185 0 0 0-.085-.056.71.71 0 0 0-.16-.033 2.367 2.367 0 0 0-.254-.01c-.102 0-.188.003-.253.01a.676.676 0 0 0-.16.033.173.173 0 0 0-.086.056.12.12 0 0 0-.025.077v3.939c0 .03.008.055.025.078a.175.175 0 0 0 .086.055.703.703 0 0 0 .16.033 2.454 2.454 0 0 0 .507 0 .74.74 0 0 0 .16-.033.183.183 0 0 0 .085-.055.124.124 0 0 0 .025-.078Zm-.71-5.267c0-.2-.036-.34-.104-.418-.069-.077-.204-.116-.405-.116-.19 0-.322.04-.394.12-.073.082-.108.227-.108.436 0 .198.034.335.103.413.07.079.204.116.399.116.195 0 .328-.039.401-.12.071-.082.108-.225.108-.431Zm1.397 0c0-.2-.034-.34-.104-.418-.07-.077-.203-.116-.399-.116-.194 0-.326.04-.397.12-.071.082-.107.227-.107.436 0 .198.034.335.102.413.068.079.201.116.398.116.193 0 .326-.039.399-.12.072-.082.108-.225.108-.431ZM86.147 55.64c0-.35-.04-.66-.116-.932a1.789 1.789 0 0 0-.356-.684 1.51 1.51 0 0 0-.605-.422 2.376 2.376 0 0 0-.865-.143c-.342 0-.638.054-.892.163a1.7 1.7 0 0 0-.635.462c-.17.199-.295.437-.38.715a3.184 3.184 0 0 0-.127.92c0 .349.038.658.116.928.078.27.198.498.358.684.16.185.364.327.608.425.244.097.53.145.86.145.34 0 .64-.055.894-.163.256-.109.468-.264.637-.464.169-.2.295-.439.379-.715a3.23 3.23 0 0 0 .124-.92Zm-1.077.045c0-.194-.014-.374-.044-.537a1.289 1.289 0 0 0-.147-.427.75.75 0 0 0-.277-.281.846.846 0 0 0-.435-.103.877.877 0 0 0-.407.09.75.75 0 0 0-.287.266c-.075.116-.13.256-.169.42a2.535 2.535 0 0 0-.055.558c0 .195.014.373.045.537.03.163.08.304.148.426.068.121.16.214.276.28.117.067.26.1.432.1a.89.89 0 0 0 .413-.092.755.755 0 0 0 .287-.262 1.29 1.29 0 0 0 .166-.418c.036-.162.054-.35.054-.557Zm6.918.808c0-.278-.074-.504-.224-.678-.149-.175-.365-.29-.644-.343a.893.893 0 0 0 .518-.322.954.954 0 0 0 .18-.596.996.996 0 0 0-.1-.46.874.874 0 0 0-.313-.333 1.584 1.584 0 0 0-.532-.202 3.929 3.929 0 0 0-.769-.064 16.287 16.287 0 0 0-1.206.048.348.348 0 0 0-.24.125.504.504 0 0 0-.08.307v3.397c0 .141.029.247.084.318.055.07.148.111.278.123a7.393 7.393 0 0 0 .542.04 15.793 15.793 0 0 0 .573.008c.328 0 .612-.03.853-.088.241-.06.442-.145.603-.258.16-.113.28-.255.36-.427.079-.17.117-.37.117-.595Zm-1.147-1.74c0-.08-.012-.15-.04-.212a.366.366 0 0 0-.126-.157.655.655 0 0 0-.231-.098 1.62 1.62 0 0 0-.348-.033 4.533 4.533 0 0 0-.54.031v.994h.561c.236 0 .416-.045.54-.134a.457.457 0 0 0 .184-.39Zm.108 1.735a.63.63 0 0 0-.044-.247.387.387 0 0 0-.145-.176.69.69 0 0 0-.267-.105 1.964 1.964 0 0 0-.393-.033h-.544v1.131c.044.006.091.01.14.015.048.005.097.008.147.01.05.003.1.007.148.008.048.002.092.002.13.002.148 0 .273-.014.38-.043a.684.684 0 0 0 .256-.12.474.474 0 0 0 .147-.193.665.665 0 0 0 .045-.249Zm6.607 1.175v-2.65c0-.27-.03-.506-.092-.701a1.086 1.086 0 0 0-.29-.484 1.232 1.232 0 0 0-.51-.279 2.68 2.68 0 0 0-.747-.09 2.6 2.6 0 0 0-.476.041 2.96 2.96 0 0 0-.426.11c-.13.043-.244.091-.342.142a.734.734 0 0 0-.203.142.346.346 0 0 0-.08.143.882.882 0 0 0-.02.216c0 .068.004.13.012.187a.703.703 0 0 0 .036.14.246.246 0 0 0 .058.089.12.12 0 0 0 .08.03.36.36 0 0 0 .174-.062c.07-.04.159-.086.264-.136.105-.05.227-.096.363-.137.138-.042.294-.061.469-.061.134 0 .244.013.335.043a.485.485 0 0 1 .332.37c.024.092.036.2.036.324v.238h-.362c-.33 0-.62.027-.87.08a1.799 1.799 0 0 0-.625.244 1.08 1.08 0 0 0-.38.42 1.33 1.33 0 0 0-.126.599c0 .21.033.396.1.556a1.095 1.095 0 0 0 .71.642c.164.054.345.082.542.082.238 0 .456-.049.651-.145.195-.098.37-.234.522-.407v.313c0 .043.012.074.035.099a.242.242 0 0 0 .12.05c.057.01.148.016.273.016.117 0 .205-.006.264-.017a.284.284 0 0 0 .131-.05.121.121 0 0 0 .042-.098Zm-1.027-1.687h-.4a2.1 2.1 0 0 0-.432.039.817.817 0 0 0-.291.119.497.497 0 0 0-.165.193.621.621 0 0 0-.051.258c0 .166.048.295.148.388.097.095.234.142.409.142a.727.727 0 0 0 .405-.119 1.72 1.72 0 0 0 .377-.35v-.67Zm7.409-.353c0-.299-.028-.578-.084-.84a2.154 2.154 0 0 0-.264-.688 1.328 1.328 0 0 0-.467-.466 1.341 1.341 0 0 0-.694-.17c-.131 0-.254.014-.369.043-.115.03-.226.075-.335.136a2.01 2.01 0 0 0-.318.224c-.104.09-.21.195-.318.312v-.464a.147.147 0 0 0-.02-.077.151.151 0 0 0-.074-.056.509.509 0 0 0-.136-.033 1.67 1.67 0 0 0-.21-.01c-.087 0-.158.003-.215.01a.528.528 0 0 0-.137.033.166.166 0 0 0-.073.056.14.14 0 0 0-.021.077v5.296c0 .03.009.057.026.08a.184.184 0 0 0 .085.06.657.657 0 0 0 .16.038c.066.01.151.012.253.012.104 0 .187-.003.254-.012a.645.645 0 0 0 .16-.038.195.195 0 0 0 .086-.06.136.136 0 0 0 .024-.08V57.36c.089.092.174.17.258.238.084.068.168.125.251.17.086.046.172.08.263.101a1.2 1.2 0 0 0 .297.034c.261 0 .493-.053.695-.159a1.4 1.4 0 0 0 .507-.455c.137-.197.239-.436.31-.717a3.87 3.87 0 0 0 .106-.947Zm-1.09.078c0-.167-.012-.328-.034-.482a1.497 1.497 0 0 0-.121-.413.775.775 0 0 0-.226-.29.545.545 0 0 0-.346-.108c-.07 0-.138.01-.206.033a.817.817 0 0 0-.209.109 1.44 1.44 0 0 0-.218.194 2.724 2.724 0 0 0-.237.296v1.298c.147.197.288.35.42.456a.65.65 0 0 0 .416.161.552.552 0 0 0 .348-.11.854.854 0 0 0 .234-.289c.061-.12.107-.253.136-.404.029-.15.043-.3.043-.45Zm7.223 1.962V53.71a.157.157 0 0 0-.021-.08.16.16 0 0 0-.077-.057.64.64 0 0 0-.151-.03 2.63 2.63 0 0 0-.452 0 .649.649 0 0 0-.138.028.283.283 0 0 0-.093.053.477.477 0 0 0-.07.082l-1.265 1.81c-.078.11-.15.221-.22.337-.069.118-.138.234-.204.352a6.937 6.937 0 0 0 .045-.751v-1.748c0-.056-.04-.098-.121-.129a1.37 1.37 0 0 0-.414-.043 2.44 2.44 0 0 0-.249.01.68.68 0 0 0-.157.033.176.176 0 0 0-.084.056.133.133 0 0 0-.023.073v3.952c0 .03.009.056.023.078a.175.175 0 0 0 .08.053.702.702 0 0 0 .149.029 2.602 2.602 0 0 0 .447.001.577.577 0 0 0 .132-.025.255.255 0 0 0 .085-.055.681.681 0 0 0 .07-.081l1.252-1.806c.081-.118.16-.236.237-.356.078-.119.15-.24.217-.364a6.774 6.774 0 0 0-.042.773v1.758c0 .03.009.054.026.075a.21.21 0 0 0 .093.051.906.906 0 0 0 .166.029 2.935 2.935 0 0 0 .5-.001.745.745 0 0 0 .154-.028.17.17 0 0 0 .083-.051.131.131 0 0 0 .022-.075Zm9.595-1.577c0-.195-.027-.37-.083-.525a1.336 1.336 0 0 0-.227-.408 1.19 1.19 0 0 0-.336-.285 1.387 1.387 0 0 0-.423-.155 1.14 1.14 0 0 0 .698-.784c.034-.123.051-.252.051-.39 0-.248-.042-.463-.125-.646a1.163 1.163 0 0 0-.36-.452 1.594 1.594 0 0 0-.578-.267 3.418 3.418 0 0 0-.838-.089h-1.351a.332.332 0 0 0-.232.086c-.062.058-.093.15-.093.28v4.982c0 .13.031.223.093.28.063.058.14.086.232.086h1.429c.218 0 .413-.013.59-.042.176-.027.342-.07.497-.13.154-.058.298-.133.425-.225a1.428 1.428 0 0 0 .553-.765 1.82 1.82 0 0 0 .078-.551Zm-1.414-2.406a.897.897 0 0 0-.05-.31.56.56 0 0 0-.15-.227.67.67 0 0 0-.252-.14 1.4 1.4 0 0 0-.404-.048h-.554v1.483h.612c.157 0 .284-.02.377-.059a.65.65 0 0 0 .236-.162.682.682 0 0 0 .139-.245.938.938 0 0 0 .046-.292Zm.278 2.446a.945.945 0 0 0-.062-.355.69.69 0 0 0-.182-.264.841.841 0 0 0-.308-.163 1.732 1.732 0 0 0-.487-.057h-.649v1.625h.791c.152 0 .279-.017.384-.051a.757.757 0 0 0 .27-.15.68.68 0 0 0 .179-.247.842.842 0 0 0 .064-.338Zm6.715 1.536v-2.65c0-.27-.031-.505-.092-.7a1.09 1.09 0 0 0-.291-.484 1.24 1.24 0 0 0-.51-.279 2.673 2.673 0 0 0-.747-.09 2.64 2.64 0 0 0-.475.041 2.966 2.966 0 0 0-.426.11c-.13.043-.244.091-.342.142a.728.728 0 0 0-.203.142.336.336 0 0 0-.08.143.884.884 0 0 0-.02.216c0 .068.003.13.012.187a.68.68 0 0 0 .035.14.244.244 0 0 0 .059.089c.024.02.051.03.08.03.046 0 .103-.02.173-.062.072-.04.16-.086.265-.136.105-.05.227-.096.363-.137a1.61 1.61 0 0 1 .469-.061c.133 0 .244.013.335.043a.485.485 0 0 1 .332.37c.024.092.035.2.035.324v.238h-.362a4.23 4.23 0 0 0-.869.08 1.799 1.799 0 0 0-.625.244c-.168.111-.294.25-.38.42a1.328 1.328 0 0 0-.126.599c0 .21.033.396.099.556a1.105 1.105 0 0 0 .71.642c.165.054.345.082.543.082.238 0 .455-.049.651-.145a1.71 1.71 0 0 0 .521-.407v.313c0 .043.013.074.036.099a.238.238 0 0 0 .12.05c.057.01.148.016.273.016.116 0 .204-.006.264-.017a.283.283 0 0 0 .131-.05.122.122 0 0 0 .042-.098Zm-1.028-1.686h-.398c-.17 0-.314.013-.433.039a.822.822 0 0 0-.292.119.493.493 0 0 0-.164.193.62.62 0 0 0-.051.258c0 .166.048.295.147.388.098.095.234.142.409.142a.73.73 0 0 0 .406-.119c.124-.08.249-.196.376-.35v-.67Zm9.115 1.466V53.71a.117.117 0 0 0-.027-.077.198.198 0 0 0-.087-.056.717.717 0 0 0-.163-.033 2.408 2.408 0 0 0-.256-.01c-.099 0-.181.003-.246.01a.658.658 0 0 0-.157.033.175.175 0 0 0-.081.056.132.132 0 0 0-.022.077v3.163h-1.177V53.71a.122.122 0 0 0-.026-.077.187.187 0 0 0-.081-.056.636.636 0 0 0-.157-.033 2.384 2.384 0 0 0-.253-.01 2.25 2.25 0 0 0-.247.01.544.544 0 0 0-.149.033.151.151 0 0 0-.074.056.147.147 0 0 0-.02.077v3.163h-1.176l-.001-3.163a.126.126 0 0 0-.024-.077.16.16 0 0 0-.078-.056.628.628 0 0 0-.155-.033 2.294 2.294 0 0 0-.251-.01c-.102 0-.187.003-.255.01a.75.75 0 0 0-.165.033.182.182 0 0 0-.087.056.12.12 0 0 0-.025.077v3.732c0 .118.024.207.071.267.047.06.12.09.22.09h4.858c.099 0 .173-.03.22-.09.048-.06.071-.15.071-.267Zm6.416-1.802c0-.35-.04-.66-.117-.932a1.789 1.789 0 0 0-.356-.684 1.512 1.512 0 0 0-.605-.422 2.374 2.374 0 0 0-.865-.143c-.342 0-.638.054-.893.163a1.699 1.699 0 0 0-.634.462 2.004 2.004 0 0 0-.381.715 3.212 3.212 0 0 0-.126.92c0 .349.038.658.116.928.079.27.198.498.358.684.161.185.364.327.608.425.244.097.531.145.86.145.341 0 .639-.055.895-.163.255-.109.467-.264.636-.464.169-.2.295-.439.379-.715.082-.277.125-.583.125-.92Zm-1.078.045c0-.194-.014-.374-.044-.537a1.265 1.265 0 0 0-.148-.427.743.743 0 0 0-.276-.281.847.847 0 0 0-.435-.103.876.876 0 0 0-.407.09.745.745 0 0 0-.287.266 1.32 1.32 0 0 0-.169.42 2.55 2.55 0 0 0-.055.558c0 .195.014.373.045.537.03.163.08.304.148.426.068.121.16.214.277.28.116.067.259.1.431.1a.886.886 0 0 0 .413-.092.75.75 0 0 0 .287-.262c.074-.114.129-.253.166-.418.036-.162.054-.35.054-.557Zm4.556 1.964V53.71a.12.12 0 0 0-.024-.077.185.185 0 0 0-.085-.056.709.709 0 0 0-.161-.033 2.354 2.354 0 0 0-.254-.01c-.102 0-.187.003-.252.01a.697.697 0 0 0-.161.033c-.041.016-.07.034-.085.056a.122.122 0 0 0-.026.077v3.939c0 .03.009.055.026.078a.172.172 0 0 0 .085.055c.04.014.094.025.161.033a2.425 2.425 0 0 0 .506 0 .738.738 0 0 0 .161-.033.183.183 0 0 0 .085-.055.124.124 0 0 0 .024-.078Zm-.71-5.268c0-.2-.035-.34-.104-.418-.069-.077-.204-.116-.404-.116-.19 0-.322.04-.395.12-.072.082-.108.227-.108.436 0 .198.034.335.104.413.07.079.203.116.399.116.194 0 .328-.039.4-.12.071-.082.108-.225.108-.431Zm1.397 0c0-.2-.034-.34-.104-.418-.069-.077-.202-.116-.398-.116-.195 0-.327.04-.398.12-.071.082-.106.227-.107.436 0 .198.035.335.103.413.068.079.2.116.397.116.193 0 .327-.039.399-.12.073-.082.108-.225.108-.431Zm7.753 4.64c0-.096-.002-.175-.009-.237a.954.954 0 0 0-.022-.153c-.01-.039-.023-.066-.04-.081a.09.09 0 0 0-.062-.023c-.036 0-.081.023-.134.07a2.814 2.814 0 0 1-.196.152 1.41 1.41 0 0 1-.271.152.936.936 0 0 1-.373.068.807.807 0 0 1-.372-.081.674.674 0 0 1-.266-.246 1.202 1.202 0 0 1-.16-.405 2.552 2.552 0 0 1-.054-.561c0-.43.073-.757.216-.978a.698.698 0 0 1 .625-.334c.137 0 .257.02.357.062.099.04.185.086.257.137.073.05.135.095.187.136a.243.243 0 0 0 .151.062c.044 0 .08-.035.108-.103.027-.07.041-.19.041-.36 0-.074-.001-.137-.006-.188a.925.925 0 0 0-.017-.13.258.258 0 0 0-.03-.086.414.414 0 0 0-.063-.083.837.837 0 0 0-.156-.114 1.68 1.68 0 0 0-.55-.202 1.985 1.985 0 0 0-1.075.105c-.227.09-.424.23-.59.419a2.014 2.014 0 0 0-.389.713 3.372 3.372 0 0 0-.139 1.024c0 .34.038.643.115.909.075.265.189.49.338.673.15.184.335.323.555.418.221.093.474.14.759.14a2.074 2.074 0 0 0 .707-.128c.102-.038.195-.082.274-.13a.95.95 0 0 0 .172-.123.307.307 0 0 0 .064-.085.376.376 0 0 0 .025-.085 1.44 1.44 0 0 0 .016-.13c.004-.052.007-.116.007-.193Zm3.408.628v-3.93a.117.117 0 0 0-.025-.076.185.185 0 0 0-.085-.058.67.67 0 0 0-.16-.038 1.95 1.95 0 0 0-.254-.013 1.92 1.92 0 0 0-.253.014.647.647 0 0 0-.16.037.174.174 0 0 0-.086.058.117.117 0 0 0-.025.076v3.93c0 .03.009.055.025.078a.175.175 0 0 0 .086.055.703.703 0 0 0 .16.033 2.454 2.454 0 0 0 .507 0 .727.727 0 0 0 .16-.033.183.183 0 0 0 .085-.055.124.124 0 0 0 .025-.078Zm.079-5.273c0-.214-.041-.363-.125-.448-.082-.084-.241-.126-.474-.126-.236 0-.396.044-.48.131-.085.087-.128.243-.128.466 0 .215.042.363.124.446.082.083.24.123.475.123.233 0 .394-.042.479-.128.086-.085.129-.24.129-.464ZM70.835 50h103.329c2.66 0 4.836 2.475 4.836 5.5s-2.176 5.5-4.836 5.5H70.835C68.176 61 66 58.525 66 55.5s2.176-5.5 4.835-5.5Z" fill="#3C2A98"/></svg>